<svg xmlns="http://www.w3.org/2000/svg" width="204.768" height="179.133" viewBox="0 0 204.768 179.133">
  <path id="Path_111" data-name="Path 111" d="M525.588,837.13h0a5,5,0,0,1-4.333-2.506L438.813,691.4a5,5,0,0,1,4.333-7.494h0l134.982.019a5,5,0,0,1,4.314,7.527l-52.535,89.711a5,5,0,0,1-8.629,0l-37.314-63.717a5,5,0,0,1,4.313-7.527l37.32-.009h0a5,5,0,0,1,0,10l-28.6.007,28.593,48.824,43.813-74.818-117.613-.017,73.794,128.2,88.725-154.1L428.193,668a5,5,0,0,1,0-10h0l194.768.008a5,5,0,0,1,4.333,7.495L529.921,834.625A5,5,0,0,1,525.588,837.13Z" transform="translate(-423.193 -657.997)" fill="#fff"/>
</svg>
