<svg xmlns="http://www.w3.org/2000/svg" width="531.548" height="64.634" viewBox="0 0 531.548 64.634">
  <g id="Group_41" data-name="Group 41" transform="translate(-981.541 -239)">
    <path id="Path_111" data-name="Path 111" d="M460.139,722.631h0a1.8,1.8,0,0,1-1.563-.9L428.829,670.05a1.8,1.8,0,0,1,1.564-2.7h0l48.7.007a1.8,1.8,0,0,1,1.557,2.716L461.7,702.438a1.8,1.8,0,0,1-3.114,0l-13.464-22.99a1.8,1.8,0,0,1,1.556-2.716l13.466,0h0a1.8,1.8,0,0,1,0,3.608l-10.319,0,10.317,17.617,15.809-27-42.437-.006,26.626,46.257,32.014-55.6-67.155,0A1.8,1.8,0,0,1,425,658h0l70.276,0a1.8,1.8,0,0,1,1.563,2.7L461.7,721.727A1.8,1.8,0,0,1,460.139,722.631Z" transform="translate(558.347 -418.997)" fill="#fff"/>
    <path id="Path_151" data-name="Path 151" d="M3.233-43.674h9.212v28.808H31.278v7.431H3.233Zm47.844,0H62.02L77.7-7.435H68.026l-2.952-7.177H47.819l-3,7.177H35.2ZM63.089-20.821,56.523-36.905h-.1L49.8-20.821ZM89.708-36.345H76.627v-7.329h35.425v7.329H98.921v28.91H89.708Zm40.413,0H117.04v-7.329h35.425v7.329H139.333v28.91h-9.212Zm28.6-7.329h9.212V-7.435h-9.212Zm39.344,37.41a28.738,28.738,0,0,1-12.012-2.341,17.909,17.909,0,0,1-7.915-6.693,18.669,18.669,0,0,1-2.774-10.256,19.4,19.4,0,0,1,2.621-10.2,17.4,17.4,0,0,1,7.456-6.718,25.542,25.542,0,0,1,11.35-2.367,24.191,24.191,0,0,1,8.907,1.578,17.839,17.839,0,0,1,6.719,4.5,15.8,15.8,0,0,1,3.716,6.846l-8.449,2.087a9.47,9.47,0,0,0-2.061-4.072,10,10,0,0,0-3.741-2.672,12.749,12.749,0,0,0-4.988-.942,13.814,13.814,0,0,0-6.489,1.451,10.3,10.3,0,0,0-4.3,4.174,12.74,12.74,0,0,0-1.527,6.337,11.823,11.823,0,0,0,1.68,6.337,10.89,10.89,0,0,0,4.759,4.174,16.739,16.739,0,0,0,7.2,1.451,15.178,15.178,0,0,0,5.853-1.094,11.652,11.652,0,0,0,4.4-3.1,10.17,10.17,0,0,0,2.316-4.708l8.551,1.578a15.862,15.862,0,0,1-3.716,7.736A19.093,19.093,0,0,1,208.2-8.072,27.127,27.127,0,0,1,198.069-6.265Zm28.045-37.41h31.2v6.769H235.021v7.94h20.257v6.006H235.021V-14.2h22.8v6.769H226.114Zm53.85,0h9.212v28.808h18.832v7.431H279.964Zm47.844,0H338.75L354.427-7.435h-9.671L341.8-14.612H324.55l-3,7.177h-9.62Zm12.012,22.853-6.566-16.084h-.1l-6.617,16.084Zm20.563-22.853H384.1a17.773,17.773,0,0,1,6.846,1.2,9.631,9.631,0,0,1,4.4,3.436,9.256,9.256,0,0,1,1.527,5.344,8.219,8.219,0,0,1-.687,3.41,7.319,7.319,0,0,1-1.985,2.621,8.759,8.759,0,0,1-3.13,1.654v.1a8.451,8.451,0,0,1,4.937,2.952,8.475,8.475,0,0,1,1.781,5.446,9.274,9.274,0,0,1-1.578,5.4,9.781,9.781,0,0,1-4.53,3.486,18.818,18.818,0,0,1-7.075,1.2H360.382ZM382.319-13.7a8.963,8.963,0,0,0,3.334-.56,4.813,4.813,0,0,0,2.163-1.6,4.149,4.149,0,0,0,.763-2.519,4.111,4.111,0,0,0-1.68-3.461,7.418,7.418,0,0,0-4.581-1.272H369.594V-13.7Zm-.305-15.015a7.721,7.721,0,0,0,3-.534,4.364,4.364,0,0,0,1.96-1.527,3.968,3.968,0,0,0,.687-2.316,3.775,3.775,0,0,0-1.5-3.181,6.7,6.7,0,0,0-4.148-1.145H369.594v8.7Zm40.667,22.5a28.353,28.353,0,0,1-8.6-1.272,20.641,20.641,0,0,1-6.871-3.588,13.153,13.153,0,0,1-4.072-5.421l6.108-3.614a9.852,9.852,0,0,0,3,3.741,15.886,15.886,0,0,0,4.937,2.6,18.7,18.7,0,0,0,5.9.942,14.643,14.643,0,0,0,4.454-.611,7.209,7.209,0,0,0,2.952-1.654,3.264,3.264,0,0,0,1.043-2.367,3.063,3.063,0,0,0-1.807-2.672A17.406,17.406,0,0,0,424-21.788l-6.311-1.018q-6.871-1.069-9.976-3.512a8.188,8.188,0,0,1-3.1-6.82,9.658,9.658,0,0,1,2.138-6.26,13.5,13.5,0,0,1,5.98-4.072,25.146,25.146,0,0,1,8.78-1.425,24.367,24.367,0,0,1,7.151,1.018,17.636,17.636,0,0,1,5.751,2.9A12.011,12.011,0,0,1,438-36.6l-5.7,3.716a8.746,8.746,0,0,0-2.519-2.876,12.694,12.694,0,0,0-3.792-1.934,14.714,14.714,0,0,0-4.53-.687,13.389,13.389,0,0,0-4.021.56,6.738,6.738,0,0,0-2.8,1.578,3.165,3.165,0,0,0-1.018,2.29,2.854,2.854,0,0,0,1.527,2.519,13.54,13.54,0,0,0,4.835,1.451l6.362.916Q433.674-28,437.11-25.428a8.325,8.325,0,0,1,3.436,7.049,9.849,9.849,0,0,1-2.24,6.413,14.294,14.294,0,0,1-6.286,4.25A26.764,26.764,0,0,1,422.681-6.214Z" transform="translate(1072.542 296.896)" fill="#fff"/>
  </g>
</svg>
