<svg xmlns="http://www.w3.org/2000/svg" width="90.547" height="85.003" viewBox="0 0 90.547 85.003">
  <g id="icon_04" transform="translate(0 0)">
    <path id="Ellipse_73" data-name="Ellipse 73" d="M28.436,9.173A19.263,19.263,0,1,0,47.7,28.436,19.285,19.285,0,0,0,28.436,9.173m0-9.173A28.436,28.436,0,1,1,0,28.436,28.436,28.436,0,0,1,28.436,0Z" transform="translate(0 28.13)" fill="#fff"/>
    <path id="Ellipse_74" data-name="Ellipse 74" d="M28.436,9.173A19.263,19.263,0,1,0,47.7,28.436,19.285,19.285,0,0,0,28.436,9.173m0-9.173A28.436,28.436,0,1,1,0,28.436,28.436,28.436,0,0,1,28.436,0Z" transform="translate(33.675 28.13)" fill="#fff" opacity="0.75"/>
    <path id="Ellipse_75" data-name="Ellipse 75" d="M28.762,9.173c-10.743,0-19.484,8.436-19.484,18.8s8.74,18.8,19.484,18.8,19.484-8.436,19.484-18.8-8.74-18.8-19.484-18.8m0-9.173C44.647,0,57.524,12.526,57.524,27.978S44.647,55.956,28.762,55.956,0,43.43,0,27.978,12.877,0,28.762,0Z" transform="translate(16.512 0)" fill="#fff" opacity="0.5"/>
  </g>
</svg>
