<svg xmlns="http://www.w3.org/2000/svg" width="100" height="80" viewBox="0 0 100 80">
  <g id="icon_03" transform="translate(1001 1652.668) rotate(180)">
    <g id="Group_135" data-name="Group 135" transform="translate(901 1572.668)">
      <path id="Path_163" data-name="Path 163" d="M9.605,44.033H1.2a1.2,1.2,0,0,1-.969-1.9L13.013,24.553a1.2,1.2,0,0,1,1.939,0L27.735,42.13a1.2,1.2,0,0,1-.969,1.9H18.4A31.543,31.543,0,0,0,72.694,64.675a1.2,1.2,0,0,1,1.712-.018l4.519,4.519a1.2,1.2,0,0,1,.014,1.68A40.33,40.33,0,0,1,9.605,44.033Z" transform="translate(0 -3.182)" fill="#fff"/>
      <path id="Path_165" data-name="Path 165" d="M9.605,19.973H1.2a1.2,1.2,0,0,1-.969-1.9L13.013.493a1.2,1.2,0,0,1,1.939,0L27.735,18.07a1.2,1.2,0,0,1-.969,1.9H18.4a31.6,31.6,0,0,0,31.536,30.36,31.286,31.286,0,0,0,22.759-9.718,1.2,1.2,0,0,1,1.712-.018l4.519,4.519a1.2,1.2,0,0,1,.014,1.68A40.281,40.281,0,0,1,65.95,55.807a39.983,39.983,0,0,1-16.015,3.315A40.394,40.394,0,0,1,9.605,19.973Z" transform="translate(100 59.122) rotate(180)" fill="#fff" opacity="0.75"/>
    </g>
    <circle id="Ellipse_72" data-name="Ellipse 72" cx="9.161" cy="9.161" r="9.161" transform="translate(941.84 1603.507)" fill="#fff" opacity="0.5"/>
  </g>
</svg>
