<svg xmlns="http://www.w3.org/2000/svg" width="76.049" height="90" viewBox="0 0 76.049 90">
  <g id="icon_02" transform="translate(-1208.5 -1562.466)">
    <path id="Path_170" data-name="Path 170" d="M171.412,22.005a5.612,5.612,0,0,1,3.949,1.612A87.542,87.542,0,0,0,205.938,41.2c3.16,1.021,3.1,4.006,3.041,7.166-.107,5.486-2.024,53.879-36.041,63.426l-.561.157L170.83,112l-.942-.21c-36.521-10.237-36.941-62.983-36.941-65.223a5.629,5.629,0,0,1,3.9-5.368,87.522,87.522,0,0,0,30.629-17.6A5.6,5.6,0,0,1,171.412,22.005Zm29.05,26.258a98.312,98.312,0,0,1-29.04-16.837,96.84,96.84,0,0,1-29.97,17.15c.356,9.251,3.44,46.728,29.959,54.85C197.077,95.513,200.134,57.969,200.463,48.263Z" transform="translate(1075.553 1540.46)" fill="#fff"/>
    <path id="Polygon_12" data-name="Polygon 12" d="M20.994,2.931a2,2,0,0,1,3.448,0L43.664,35.614a2,2,0,0,1-1.724,3.014H3.5a2,2,0,0,1-1.724-3.014Z" transform="translate(1269.269 1632.292) rotate(180)" fill="#fff" opacity="0.5"/>
    <path id="Polygon_13" data-name="Polygon 13" d="M9.819,1.534a1,1,0,0,1,1.74,0l8.973,15.827a1,1,0,0,1-.87,1.493H1.716a1,1,0,0,1-.87-1.493Z" transform="translate(1256.844 1619.4) rotate(180)" fill="#fff" opacity="0.75"/>
  </g>
</svg>
