<svg xmlns="http://www.w3.org/2000/svg" width="92.643" height="90" viewBox="0 0 92.643 90">
  <g id="icoin_01" transform="translate(-734 -1565.384)">
    <g id="Group_138" data-name="Group 138" transform="translate(734 1565.384)">
      <g id="Group_137" data-name="Group 137">
        <path id="Path_167" data-name="Path 167" d="M18697.672-5209.291a2.644,2.644,0,0,1-1.354-3.027l7.838-30.014h-18.51a2.641,2.641,0,0,1-2.395-1.514,2.651,2.651,0,0,1,.346-2.814l42.354-51.378a2.638,2.638,0,0,1,2.043-.961,2.671,2.671,0,0,1,1.207.289,2.644,2.644,0,0,1,1.355,3.028l-7.838,30.013h18.514a2.638,2.638,0,0,1,2.389,1.515,2.624,2.624,0,0,1-.352,2.813l-42.348,51.377a2.655,2.655,0,0,1-2.045.963A2.622,2.622,0,0,1,18697.672-5209.291Z" transform="translate(-18651.234 5298.999)" fill="#fff"/>
        <path id="Path_168" data-name="Path 168" d="M18697.672-5209.291a2.644,2.644,0,0,1-1.354-3.027l7.838-30.014h-18.51a2.641,2.641,0,0,1-2.395-1.514,2.651,2.651,0,0,1,.346-2.814l42.354-51.378a2.638,2.638,0,0,1,2.043-.961,2.671,2.671,0,0,1,1.207.289,2.644,2.644,0,0,1,1.355,3.028l-7.838,30.013h18.514a2.638,2.638,0,0,1,2.389,1.515,2.624,2.624,0,0,1-.352,2.813l-42.348,51.377a2.655,2.655,0,0,1-2.045.963A2.622,2.622,0,0,1,18697.672-5209.291Z" transform="translate(-18667.115 5298.999)" fill="#fff" opacity="0.75"/>
        <path id="Path_169" data-name="Path 169" d="M18697.672-5209.291a2.644,2.644,0,0,1-1.354-3.027l7.838-30.014h-18.51a2.641,2.641,0,0,1-2.395-1.514,2.651,2.651,0,0,1,.346-2.814l42.354-51.378a2.638,2.638,0,0,1,2.043-.961,2.671,2.671,0,0,1,1.207.289,2.644,2.644,0,0,1,1.355,3.028l-7.838,30.013h18.514a2.638,2.638,0,0,1,2.389,1.515,2.624,2.624,0,0,1-.352,2.813l-42.348,51.377a2.655,2.655,0,0,1-2.045.963A2.622,2.622,0,0,1,18697.672-5209.291Z" transform="translate(-18682.998 5298.999)" fill="#fff" opacity="0.5"/>
      </g>
    </g>
  </g>
</svg>
