<svg xmlns="http://www.w3.org/2000/svg" width="147.12" height="157.158" viewBox="0 0 147.12 157.158">
  <g id="logo" transform="translate(-239.951 -5886.342)">
    <g id="Ellipse_93" data-name="Ellipse 93" transform="translate(253 5908.524)" fill="none" stroke="#fff" stroke-width="3">
      <circle cx="60.5" cy="60.5" r="60.5" stroke="none"/>
      <circle cx="60.5" cy="60.5" r="59" fill="none"/>
    </g>
    <g id="Group_186" data-name="Group 186" transform="translate(242 5947.612)">
      <path id="Path_250" data-name="Path 250" d="M0,0,14.921,8.67V25.94L0,17.27Z" transform="translate(0.001 12.902)" stroke="#fff" stroke-linejoin="round" stroke-width="3"/>
      <path id="Path_251" data-name="Path 251" d="M14.921,0,0,8.67V25.94l14.921-8.67Z" transform="translate(14.922 12.902)" stroke="#fff" stroke-linejoin="round" stroke-width="3"/>
      <path id="Path_252" data-name="Path 252" d="M14.85,0,0,8.651V25.885l14.85-8.651Z" transform="translate(7.425 25.803) rotate(-120)" stroke="#fff" stroke-linejoin="round" stroke-width="3"/>
    </g>
    <g id="Group_187" data-name="Group 187" transform="translate(355.18 5947.612)">
      <path id="Path_250-2" data-name="Path 250" d="M0,0,14.921,8.67V25.94L0,17.27Z" transform="translate(0.001 12.902)" stroke="#fff" stroke-linejoin="round" stroke-width="3"/>
      <path id="Path_251-2" data-name="Path 251" d="M14.921,0,0,8.67V25.94l14.921-8.67Z" transform="translate(14.922 12.902)" stroke="#fff" stroke-linejoin="round" stroke-width="3"/>
      <path id="Path_252-2" data-name="Path 252" d="M14.85,0,0,8.651V25.885l14.85-8.651Z" transform="translate(7.425 25.803) rotate(-120)" stroke="#fff" stroke-linejoin="round" stroke-width="3"/>
    </g>
    <g id="Group_188" data-name="Group 188" transform="translate(299 5888.391)">
      <path id="Path_250-3" data-name="Path 250" d="M0,0,14.921,8.67V25.94L0,17.27Z" transform="translate(0.001 12.902)" stroke="#fff" stroke-linejoin="round" stroke-width="3"/>
      <path id="Path_251-3" data-name="Path 251" d="M14.921,0,0,8.67V25.94l14.921-8.67Z" transform="translate(14.922 12.902)" stroke="#fff" stroke-linejoin="round" stroke-width="3"/>
      <path id="Path_252-3" data-name="Path 252" d="M14.85,0,0,8.651V25.885l14.85-8.651Z" transform="translate(7.425 25.803) rotate(-120)" stroke="#fff" stroke-linejoin="round" stroke-width="3"/>
    </g>
    <g id="Group_189" data-name="Group 189" transform="translate(299 6003.158)">
      <path id="Path_250-4" data-name="Path 250" d="M0,0,14.921,8.67V25.94L0,17.27Z" transform="translate(0.001 12.902)" stroke="#fff" stroke-linejoin="round" stroke-width="3"/>
      <path id="Path_251-4" data-name="Path 251" d="M14.921,0,0,8.67V25.94l14.921-8.67Z" transform="translate(14.922 12.902)" stroke="#fff" stroke-linejoin="round" stroke-width="3"/>
      <path id="Path_252-4" data-name="Path 252" d="M14.85,0,0,8.651V25.885l14.85-8.651Z" transform="translate(7.425 25.803) rotate(-120)" stroke="#fff" stroke-linejoin="round" stroke-width="3"/>
    </g>
    <path id="Path_111" data-name="Path 111" d="M442.179,691.212h0a.927.927,0,0,1-.8-.465L426.09,664.191a.927.927,0,0,1,.8-1.39h0l25.028,0a.927.927,0,0,1,.8,1.4l-9.741,16.634a.927.927,0,0,1-1.6,0l-6.919-11.814a.927.927,0,0,1,.8-1.4l6.92,0h0a.927.927,0,0,1,0,1.854h-5.3l5.3,9.053,8.124-13.873-21.808,0,13.683,23.771,16.451-28.574h-34.51a.927.927,0,1,1,0-1.854h0l36.114,0a.927.927,0,0,1,.8,1.39l-18.055,31.359A.927.927,0,0,1,442.179,691.212Z" transform="translate(-128.193 5297.396)" fill="#fff"/>
    <circle id="Ellipse_94" data-name="Ellipse 94" cx="31.5" cy="31.5" r="31.5" transform="translate(282.484 5937.524)" fill="none" stroke="#fff" stroke-width="3"/>
  </g>
</svg>
