<svg xmlns="http://www.w3.org/2000/svg" width="143" height="143" viewBox="0 0 143 143">
  <g id="logo" transform="translate(-1224.5 -5899.5)">
    <path id="Intersection_1" data-name="Intersection 1" d="M0,35.557A81.876,81.876,0,0,1,67.925,0a81.87,81.87,0,0,1,67.921,35.557A81.871,81.871,0,0,1,67.925,71.114,81.876,81.876,0,0,1,0,35.557Z" transform="translate(1228.076 5936.219)" fill="none" stroke="#fff" stroke-linejoin="round" stroke-width="3"/>
    <circle id="Ellipse_99" data-name="Ellipse 99" cx="70" cy="70" r="70" transform="translate(1226 5901)" fill="none" stroke="#fff" stroke-width="3"/>
    <circle id="Ellipse_100" data-name="Ellipse 100" cx="33.941" cy="33.941" r="33.941" transform="translate(1262.059 5937.838)" fill="none" stroke="#fff" stroke-width="3"/>
    <path id="Path_111" data-name="Path 111" d="M442.179,691.212h0a.927.927,0,0,1-.8-.465L426.09,664.191a.927.927,0,0,1,.8-1.39h0l25.028,0a.927.927,0,0,1,.8,1.4l-9.741,16.634a.927.927,0,0,1-1.6,0l-6.919-11.814a.927.927,0,0,1,.8-1.4l6.92,0h0a.927.927,0,0,1,0,1.854h-5.3l5.3,9.053,8.124-13.873-21.808,0,13.683,23.771,16.451-28.574h-34.51a.927.927,0,1,1,0-1.854h0l36.114,0a.927.927,0,0,1,.8,1.39l-18.055,31.359A.927.927,0,0,1,442.179,691.212Z" transform="translate(853.807 5301.003)" fill="#fff"/>
  </g>
</svg>
